<svg width="86" height="66" viewBox="0 0 86 66" fill="none" xmlns="http://www.w3.org/2000/svg">
<ellipse cx="41.5" cy="60.5" rx="7.5" ry="5.5" fill="black"/>
<path d="M74.4791 39.6347C75.4603 40.8205 76.6511 41.5975 77.921 41.8805C79.1909 42.1635 80.4909 41.9416 81.6783 41.2391C82.8658 40.5366 83.8949 39.3806 84.6529 37.8978C85.411 36.4151 85.8686 34.6628 85.9757 32.8331C86.0827 31.0035 85.8351 29.167 85.26 27.525C84.6848 25.883 83.8043 24.499 82.715 23.5245C81.6257 22.5501 80.3696 22.0229 79.0845 22.0007C77.7993 21.9786 76.5347 22.4623 75.4292 23.3989L79 32L74.4791 39.6347Z" fill="black"/>
<path d="M9.38404 22.5978C8.30171 22.0378 7.13939 21.8676 6.00004 22.1026C4.86068 22.3375 3.77947 22.9702 2.85217 23.9446C1.92488 24.9191 1.18011 26.2052 0.683855 27.689C0.187597 29.1729 -0.0448382 30.8087 0.00713922 32.4515C0.0591167 34.0944 0.393902 35.6935 0.98184 37.1074C1.56978 38.5212 2.39272 39.7061 3.37777 40.5571C4.36283 41.408 5.47958 41.8988 6.62912 41.986C7.77866 42.0731 8.9255 41.7539 9.96806 41.0566L7 32L9.38404 22.5978Z" fill="black"/>
<mask id="path-4-inside-1_1_22" fill="white">
<path d="M79.3196 40.7046C81.7057 34.3152 81.5471 27.4704 78.8665 21.1596C76.186 14.8488 71.1224 9.39867 64.4075 5.59696C57.6927 1.79525 49.6744 -0.161184 41.5113 0.0103886C33.3482 0.181961 25.4633 2.47265 18.9958 6.55143C12.5284 10.6302 7.81353 16.2858 5.53255 22.7009C3.25156 29.1161 3.52262 35.9584 6.30656 42.2392C9.09049 48.52 14.2431 53.914 21.0198 57.6415C27.7964 61.3691 35.8462 63.2372 44.0057 62.9759L43.8114 58.9137C36.7049 59.1412 29.6941 57.5142 23.792 54.2677C17.8899 51.0213 13.4023 46.3235 10.9776 40.8532C8.55298 35.383 8.3169 29.4237 10.3035 23.8365C12.2901 18.2493 16.3965 13.3236 22.0292 9.77126C27.662 6.21888 34.5294 4.22382 41.6389 4.07439C48.7485 3.92496 55.732 5.6289 61.5802 8.93997C67.4284 12.251 71.8385 16.9977 74.1731 22.4941C76.5077 27.9905 76.6459 33.9518 74.5677 39.5167L79.3196 40.7046Z"/>
</mask>
<path d="M79.3196 40.7046C81.7057 34.3152 81.5471 27.4704 78.8665 21.1596C76.186 14.8488 71.1224 9.39867 64.4075 5.59696C57.6927 1.79525 49.6744 -0.161184 41.5113 0.0103886C33.3482 0.181961 25.4633 2.47265 18.9958 6.55143C12.5284 10.6302 7.81353 16.2858 5.53255 22.7009C3.25156 29.1161 3.52262 35.9584 6.30656 42.2392C9.09049 48.52 14.2431 53.914 21.0198 57.6415C27.7964 61.3691 35.8462 63.2372 44.0057 62.9759L43.8114 58.9137C36.7049 59.1412 29.6941 57.5142 23.792 54.2677C17.8899 51.0213 13.4023 46.3235 10.9776 40.8532C8.55298 35.383 8.3169 29.4237 10.3035 23.8365C12.2901 18.2493 16.3965 13.3236 22.0292 9.77126C27.662 6.21888 34.5294 4.22382 41.6389 4.07439C48.7485 3.92496 55.732 5.6289 61.5802 8.93997C67.4284 12.251 71.8385 16.9977 74.1731 22.4941C76.5077 27.9905 76.6459 33.9518 74.5677 39.5167L79.3196 40.7046Z" stroke="black" stroke-width="10" mask="url(#path-4-inside-1_1_22)"/>
<ellipse cx="45" cy="24" rx="5" ry="7" fill="black"/>
<ellipse cx="62" cy="23" rx="5" ry="7" fill="black"/>
</svg>
